<?xml version="1.0" encoding="UTF-8" standalone="no"?>
<svg
   id="Layer_1"
   data-name="Layer 1"
   viewBox="0 0 165.79 165.24"
   version="1.1"
   sodipodi:docname="metro.svg"
   inkscape:version="1.3.2 (091e20e, 2023-11-25, custom)"
   xmlns:inkscape="http://www.inkscape.org/namespaces/inkscape"
   xmlns:sodipodi="http://sodipodi.sourceforge.net/DTD/sodipodi-0.dtd"
   xmlns="http://www.w3.org/2000/svg"
   xmlns:svg="http://www.w3.org/2000/svg">
  <defs
     id="defs3" />
  <sodipodi:namedview
     id="namedview3"
     pagecolor="#ffffff"
     bordercolor="#000000"
     borderopacity="0.25"
     inkscape:showpageshadow="2"
     inkscape:pageopacity="0.0"
     inkscape:pagecheckerboard="0"
     inkscape:deskcolor="#d1d1d1"
     inkscape:zoom="4.8717016"
     inkscape:cx="82.82527"
     inkscape:cy="82.620003"
     inkscape:window-width="1920"
     inkscape:window-height="1009"
     inkscape:window-x="-8"
     inkscape:window-y="351"
     inkscape:window-maximized="1"
     inkscape:current-layer="Layer_1" />
  <circle
     style="fill:#eb1f22;fill-opacity:1;stroke-width:9.93638"
     id="path4"
     cx="82.927902"
     cy="82.927902"
     r="82.106834" />
  <path
     d="m 56.558443,62.348791 c 0.284365,-2.359621 0.56873,-4.549833 0.816792,-6.740046 0.78049,-6.982058 2.287018,-13.812859 4.301771,-20.534755 0.405371,-1.355269 1.095107,-2.389872 2.692389,-2.438275 2.504828,-0.0726 3.551532,1.331069 2.898098,3.847998 -1.325018,5.118563 -2.940451,10.182673 -3.872198,15.367789 -2.746842,15.307286 -0.840994,30.118447 5.499732,44.330627 1.064855,2.389873 2.293068,4.713191 3.454727,7.060711 0.108906,0.21176 0.284365,0.39327 0.726038,0.99225 0,-1.10115 0.0121,-1.77274 0,-2.44432 -0.139157,-6.401232 0.611081,-12.663303 2.807344,-18.725715 2.619784,-7.242222 7.048612,-13.195727 12.748005,-18.265888 4.247318,-3.775394 9.051265,-6.715845 14.018569,-9.438485 0.62923,-0.344867 1.12536,-1.222162 1.34922,-1.95425 1.32502,-4.27757 2.52298,-8.597492 3.8359,-12.881112 0.38117,-1.240313 1.02855,-2.268866 2.65608,-2.202313 2.62584,0.102856 3.7754,1.681987 2.8739,4.150513 -0.84704,2.317269 -1.74249,4.616388 -2.60768,6.927606 -0.0968,0.260164 -0.12706,0.550579 -0.26017,1.179811 1.42788,-0.840993 2.52903,-1.609383 3.727,-2.178112 4.81604,-2.280967 9.63209,-4.580085 14.52074,-6.703744 2.51088,-1.095107 4.37438,0.350918 4.30782,3.000954 -0.0363,1.55493 -1.22216,1.978451 -2.29307,2.492728 -3.22481,1.542829 -6.52828,2.940451 -9.71074,4.567984 -3.95086,2.014754 -7.83516,4.162614 -11.69525,6.340726 -0.68974,0.38722 -1.37343,1.095106 -1.67594,1.815093 -3.8601,9.184372 -6.45568,18.67731 -6.34073,28.726876 0.15731,13.165478 5.37268,24.019738 15.28914,32.611178 2.35357,2.03895 4.91285,3.84194 7.42373,5.69939 1.61543,1.19191 2.14786,2.81944 1.27662,4.29572 -0.9136,1.53073 -2.44433,1.82114 -4.32598,0.67763 -9.02706,-5.48158 -16.75936,-12.25792 -21.48465,-21.93237 -3.085659,-6.31653 -4.404627,-13.038421 -4.362274,-20.056782 0.0484,-7.859353 1.875596,-15.373839 4.247318,-22.79152 0.229912,-0.719987 0.471924,-1.433924 0.695786,-2.159961 0.0242,-0.07865 -0.0484,-0.18756 -0.157309,-0.562679 -1.325018,0.913597 -2.607683,1.736439 -3.823796,2.643986 -5.572336,4.144463 -10.291579,9.014963 -13.298583,15.39199 -2.093407,4.446979 -3.10986,9.14202 -3.412375,14.00647 -0.423522,6.703746 0.574779,13.274386 2.014753,19.796616 0.223862,1.02855 0.399321,2.08131 0.496126,3.12801 0.121006,1.36737 -0.532428,2.36567 -1.790892,2.8497 -1.179811,0.45377 -2.147861,0 -2.958602,-0.91965 -3.975054,-4.47723 -7.181719,-9.47479 -9.849906,-14.80511 -1.712238,-3.42448 -3.249017,-6.933656 -4.8705,-10.406535 -0.163359,-0.350918 -0.369069,-0.677635 -0.713937,-1.312917 -0.58083,2.075256 -1.034603,3.854048 -1.585181,5.602592 -3.847998,12.20347 -11.459289,21.47255 -22.19859,28.25495 -2.414074,1.52468 -4.132363,0.93779 -5.003607,-1.55493 -0.556629,-1.58518 0.169408,-2.72869 1.343169,-3.69674 2.758941,-2.26887 5.644939,-4.41068 8.270774,-6.82475 6.141066,-5.64494 10.581994,-12.39104 12.608848,-20.583161 1.9482,-7.883555 1.125358,-15.615852 -1.415773,-23.221092 -2.801294,-8.379681 -7.490285,-15.694506 -12.881111,-22.610012 -0.738138,-0.949898 -1.470226,-1.936099 -1.984502,-3.013054 -0.786541,-1.651735 -0.272264,-3.291369 1.083005,-4.108161 1.427874,-0.859144 2.72264,-0.629233 4.005306,0.853094 4.446978,5.179066 8.385731,10.702999 11.435087,16.838014 0.223862,0.447723 0.465874,0.895446 0.713937,1.331069 0.04235,0.0726 0.163358,0.102855 0.459824,0.290415 z"
     style="fill:#ffffff;fill-opacity:1;stroke-width:0px"
     id="path1" />
  <path
     d="m 50.913503,44.536676 c -3.333721,0.0061 -5.85065,-2.516929 -5.820398,-5.832499 0.03025,-3.134061 2.577432,-5.681242 5.681241,-5.687292 3.29742,0 5.935355,2.583482 5.911154,5.790147 -0.03025,3.249017 -2.516929,5.723594 -5.771997,5.729644 z"
     style="fill:#ffffff;fill-opacity:1;stroke-width:0px"
     id="path2" />
  <path
     d="m 120.34082,43.955847 c -3.18851,-0.0968 -5.51788,-2.504829 -5.45133,-5.63284 0.0666,-3.206664 2.56533,-5.548135 5.7962,-5.433179 3.01305,0.108906 5.39687,2.613734 5.34242,5.620739 -0.0545,3.055407 -2.64398,5.536034 -5.68124,5.44528 z"
     style="fill:#ffffff;fill-opacity:1;stroke-width:0px"
     id="path3" />
</svg>
